<?xml version="1.0" encoding="utf-8"?>
<!-- Generator: Adobe Illustrator 23.0.6, SVG Export Plug-In . SVG Version: 6.00 Build 0)  -->
<svg version="1.1" id="Capa_1" xmlns="http://www.w3.org/2000/svg" xmlns:xlink="http://www.w3.org/1999/xlink" x="0px" y="0px"
	 viewBox="0 0 432 343.6" style="enable-background:new 0 0 432 343.6;" xml:space="preserve">
<style type="text/css">
	.st0{fill:url(#Trazado_394-2_2_);}
	.st1{fill:#FFFFFF;}
	.st2{fill:none;}
	.st3{enable-background:new    ;}
</style>
<g id="Grupo_263" transform="translate(9 -14)">
	<g transform="matrix(1, 0, 0, 1, -9, 14)">
		
			<linearGradient id="Trazado_394-2_2_" gradientUnits="userSpaceOnUse" x1="0" y1="176.9081" x2="432" y2="176.9081" gradientTransform="matrix(1 0 0 -1 0 346)">
			<stop  offset="0" style="stop-color:#00675B"/>
			<stop  offset="1" style="stop-color:#009688"/>
		</linearGradient>
		<path id="Trazado_394-2_1_" class="st0" d="M0,281c0,0,8.7-19.4,39.6-18.6s111.6,37.3,171,33.4s89.4-26.9,107.2-39.7
			c17.8-12.8,39.6-33.4,60.7-23.2s9.6,29.4-1.8,43.4s-20.1,24.7-23.2,30s-8.5,19.4,0,27.6c8.5,8.1,21.3,2.3,23.2,1.9
			c1.9-0.4,31.6-12.7,31.6-12.7s12.6-5.3,17.2-4.2c2.6,0.5,4.9,2,6.5,4.2V0H0V281z"/>
	</g>
	<g id="Logo" transform="translate(114.76 3.781)">
		<g id="Grupo_64" transform="translate(15.24 42.336)">
			<path id="Trazado_390" class="st1" d="M147.3,12.3L147.3,12.3C136-2,115-4.4,100.6,6.8c-2.1,1.6-3.9,3.4-5.6,5.5l-60,75
				l34.8,43.4c3.3,4.1,9.4,4.8,13.6,1.6c0.6-0.5,1.1-1,1.6-1.6l62.4-77.9C156.9,40.9,156.9,24.1,147.3,12.3z"/>
			<path id="Trazado_391" class="st1" d="M59.4,12C48.1-2.2,27.1-4.7,12.7,6.5C10.6,8.1,8.8,9.9,7.1,12l0,0
				c-9.5,11.9-9.5,28.6,0,40.5l22.4,28l42.4-52.9L59.4,12z"/>
		</g>
		<g id="Grupo_65" transform="translate(15.24 42.336)">
			<path id="Trazado_392" class="st2" d="M147.3,12.3L147.3,12.3C136-2,115-4.4,100.6,6.8c-2.1,1.6-3.9,3.4-5.6,5.5l-60,75
				l34.8,43.4c3.3,4.1,9.4,4.8,13.6,1.6c0.6-0.5,1.1-1,1.6-1.6l62.4-77.9C156.9,40.9,156.9,24.1,147.3,12.3z"/>
			<path id="Trazado_393" class="st2" d="M59.4,12C48.1-2.2,27.1-4.7,12.7,6.5C10.6,8.1,8.8,9.9,7.1,12l0,0
				c-9.5,11.9-9.5,28.6,0,40.5l22.4,28l42.4-52.9L59.4,12z"/>
		</g>
	</g>
	<g class="st3">
		<path class="st1" d="M150,215.4c0.5,0.4,0.7,1,0.7,1.8v16.3c0,3.2-0.9,5.6-2.7,7.2c-1.8,1.6-4.4,2.4-7.9,2.4
			c-3.1,0-5.6-0.6-7.6-1.7c-1-0.6-1.6-1.3-1.6-2.2c0-0.6,0.1-1.1,0.4-1.4c0.3-0.4,0.7-0.5,1.2-0.5c0.3,0,0.6,0.1,0.9,0.2
			c0.4,0.1,0.7,0.3,1.1,0.4c1,0.4,1.9,0.7,2.7,1c0.8,0.2,1.7,0.3,2.8,0.3c3.7,0,5.5-1.8,5.5-5.3v-2.6c-0.6,1.1-1.5,2-2.7,2.6
			c-1.2,0.6-2.5,0.9-4,0.9c-1.8,0-3.4-0.4-4.8-1.3c-1.4-0.8-2.5-2-3.3-3.5c-0.8-1.5-1.2-3.3-1.2-5.2s0.4-3.7,1.2-5.3
			c0.8-1.5,1.9-2.7,3.3-3.6c1.4-0.8,3-1.3,4.8-1.3c1.5,0,2.9,0.3,4,0.9c1.2,0.6,2.1,1.5,2.7,2.6v-1.1c0-0.7,0.2-1.3,0.7-1.7
			c0.5-0.4,1.1-0.7,1.9-0.7C148.9,214.7,149.5,215,150,215.4z M144.1,229.2c0.9-1.1,1.4-2.5,1.4-4.4c0-1.9-0.5-3.4-1.4-4.5
			c-0.9-1.1-2.2-1.6-3.9-1.6c-1.7,0-3,0.5-3.9,1.6c-1,1.1-1.4,2.6-1.4,4.5c0,1.9,0.5,3.3,1.4,4.4c1,1.1,2.3,1.6,3.9,1.6
			C141.9,230.8,143.2,230.2,144.1,229.2z"/>
		<path class="st1" d="M160,234.4c-1.6-0.9-2.8-2.1-3.7-3.7c-0.9-1.6-1.3-3.5-1.3-5.6s0.4-4,1.3-5.6c0.9-1.6,2.1-2.8,3.7-3.7
			c1.6-0.9,3.4-1.3,5.5-1.3s3.9,0.4,5.5,1.3c1.6,0.9,2.8,2.1,3.7,3.7c0.9,1.6,1.3,3.4,1.3,5.6s-0.4,4-1.3,5.6
			c-0.9,1.6-2.1,2.8-3.7,3.7s-3.4,1.3-5.5,1.3S161.6,235.3,160,234.4z M169.4,230c0.9-1.1,1.3-2.7,1.3-4.9c0-2.1-0.4-3.7-1.3-4.9
			c-0.9-1.1-2.2-1.7-3.9-1.7s-3,0.6-3.9,1.7c-0.9,1.1-1.4,2.7-1.4,4.9c0,2.1,0.4,3.8,1.3,4.9c0.9,1.1,2.2,1.7,3.9,1.7
			C167.2,231.7,168.5,231.1,169.4,230z"/>
		<path class="st1" d="M184.1,234.4c-1.6-0.9-2.8-2.1-3.7-3.7c-0.9-1.6-1.3-3.5-1.3-5.6s0.4-4,1.3-5.6c0.9-1.6,2.1-2.8,3.7-3.7
			c1.6-0.9,3.4-1.3,5.5-1.3s3.9,0.4,5.5,1.3c1.6,0.9,2.8,2.1,3.7,3.7c0.9,1.6,1.3,3.4,1.3,5.6s-0.4,4-1.3,5.6
			c-0.9,1.6-2.1,2.8-3.7,3.7s-3.4,1.3-5.5,1.3S185.7,235.3,184.1,234.4z M193.5,230c0.9-1.1,1.3-2.7,1.3-4.9c0-2.1-0.4-3.7-1.3-4.9
			c-0.9-1.1-2.2-1.7-3.9-1.7s-3,0.6-3.9,1.7c-0.9,1.1-1.4,2.7-1.4,4.9c0,2.1,0.4,3.8,1.3,4.9c0.9,1.1,2.2,1.7,3.9,1.7
			C191.3,231.7,192.6,231.1,193.5,230z"/>
		<path class="st1" d="M223.5,206.7c0.5,0.4,0.8,1,0.8,1.7v24.7c0,0.7-0.2,1.3-0.7,1.8c-0.5,0.4-1.1,0.7-1.9,0.7
			c-0.8,0-1.4-0.2-1.9-0.7c-0.5-0.4-0.7-1-0.7-1.8v-1c-0.6,1.1-1.5,2-2.7,2.6c-1.2,0.6-2.5,1-4,1c-1.8,0-3.3-0.4-4.7-1.3
			c-1.4-0.9-2.5-2.1-3.2-3.7c-0.8-1.6-1.2-3.5-1.2-5.6s0.4-3.9,1.2-5.5c0.8-1.6,1.8-2.8,3.2-3.6c1.4-0.9,3-1.3,4.7-1.3
			c1.5,0,2.8,0.3,3.9,0.9s2,1.5,2.6,2.6v-9.8c0-0.7,0.2-1.2,0.7-1.7c0.5-0.4,1.1-0.6,1.9-0.6C222.4,206,223,206.2,223.5,206.7z
			 M217.7,230c0.9-1.1,1.4-2.7,1.4-4.8s-0.5-3.7-1.4-4.8c-0.9-1.1-2.2-1.7-3.8-1.7c-1.7,0-3,0.6-3.9,1.7s-1.4,2.7-1.4,4.8
			c0,2.1,0.5,3.7,1.4,4.9c0.9,1.2,2.2,1.7,3.9,1.7C215.5,231.7,216.8,231.1,217.7,230z"/>
		<path class="st1" d="M259.2,216.6c1.2,1.3,1.8,3.4,1.8,6.3v10.2c0,0.8-0.2,1.4-0.7,1.8s-1.1,0.6-1.9,0.6c-0.8,0-1.4-0.2-1.9-0.6
			c-0.5-0.4-0.7-1-0.7-1.8V223c0-1.5-0.3-2.6-0.8-3.2c-0.5-0.6-1.4-1-2.5-1c-1.4,0-2.5,0.5-3.3,1.4s-1.2,2.2-1.2,3.8v9.2
			c0,0.8-0.2,1.4-0.7,1.8c-0.5,0.4-1.1,0.6-1.9,0.6c-0.8,0-1.4-0.2-1.9-0.6s-0.8-1-0.8-1.8V223c0-1.5-0.3-2.6-0.8-3.2
			c-0.5-0.6-1.4-1-2.5-1c-1.4,0-2.5,0.5-3.3,1.4c-0.8,0.9-1.2,2.2-1.2,3.8v9.2c0,0.8-0.3,1.4-0.8,1.8c-0.5,0.4-1.1,0.6-1.9,0.6
			c-0.8,0-1.4-0.2-1.9-0.6c-0.5-0.4-0.7-1-0.7-1.8v-16c0-0.8,0.3-1.4,0.8-1.8c0.5-0.4,1.1-0.6,1.9-0.6c0.7,0,1.3,0.2,1.8,0.6
			c0.5,0.4,0.7,1,0.7,1.7v1c0.6-1.1,1.5-1.9,2.6-2.5c1.1-0.6,2.3-0.9,3.7-0.9c3.1,0,5.1,1.3,6.2,3.8c0.6-1.2,1.5-2.1,2.7-2.8
			c1.2-0.7,2.6-1,4.1-1C256.3,214.7,258,215.3,259.2,216.6z"/>
		<path class="st1" d="M283.8,230.4c0.3,0.4,0.4,0.8,0.4,1.4c0,0.9-0.5,1.6-1.6,2.1c-1,0.5-2,0.9-3.2,1.3c-1.2,0.3-2.4,0.5-3.4,0.5
			c-3.3,0-5.9-0.9-7.9-2.8c-1.9-1.9-2.9-4.4-2.9-7.7c0-2.1,0.4-3.9,1.3-5.5c0.8-1.6,2-2.8,3.5-3.7c1.5-0.9,3.3-1.3,5.2-1.3
			c1.8,0,3.5,0.4,4.8,1.2c1.4,0.8,2.4,1.9,3.2,3.4c0.8,1.5,1.1,3.2,1.1,5.2c0,1.2-0.5,1.8-1.6,1.8h-12.4c0.2,1.9,0.7,3.3,1.6,4.2
			c0.9,0.9,2.3,1.3,4,1.3c0.9,0,1.7-0.1,2.4-0.3c0.7-0.2,1.5-0.5,2.3-0.9c0.8-0.4,1.5-0.7,1.8-0.7
			C283.1,229.8,283.5,230,283.8,230.4z M271.9,219.6c-0.9,0.9-1.4,2.1-1.5,3.8h9.5c-0.1-1.7-0.5-3-1.3-3.8c-0.8-0.9-1.9-1.3-3.3-1.3
			C273.9,218.3,272.8,218.7,271.9,219.6z"/>
	</g>
</g>
</svg>
