<?xml version="1.0" encoding="utf-8"?>
<!-- Generator: Adobe Illustrator 23.0.6, SVG Export Plug-In . SVG Version: 6.00 Build 0)  -->
<svg version="1.1" id="Capa_1" xmlns="http://www.w3.org/2000/svg" xmlns:xlink="http://www.w3.org/1999/xlink" x="0px" y="0px"
	 viewBox="0 0 512 512" style="enable-background:new 0 0 512 512;" xml:space="preserve">
<style type="text/css">
	.st0{fill:#F2F2F2;}
	.st1{fill:#009688;}
	.st2{fill:#FFFFFF;}
</style>
<rect class="st0" width="512" height="512"/>
<path id="user-circle" class="st1" d="M255.98,15h-0.08C122.65,15,14.63,123.02,14.63,256.27
	C14.62,389.52,122.64,497.55,255.9,497.55c133.25,0,241.27-108.02,241.27-241.27v-0.01C497.2,123.04,389.21,15.02,255.98,15z
	 M195.36,133.48c15.5-15.5,36.9-25.08,60.54-25.08c47.29,0,85.62,38.33,85.62,85.61c0,47.29-38.33,85.62-85.62,85.62
	c-47.28,0-85.61-38.33-85.61-85.62C170.29,170.37,179.87,148.97,195.36,133.48z M255.9,443.07c-54.97-0.02-107.12-24.3-142.53-66.35
	c18.67-35.68,55.57-58.08,95.83-58.18c2.34,0.01,4.67,0.37,6.91,1.07c12.83,4.31,26.25,6.58,39.79,6.71
	c13.53-0.12,26.96-2.39,39.79-6.71c2.24-0.7,4.56-1.06,6.91-1.07c40.26,0.1,77.16,22.5,95.82,58.18
	C363.02,418.76,310.87,443.04,255.9,443.07z"/>
<path class="st2" d="M398.42,376.72c-35.4,42.04-87.55,66.32-142.52,66.35c-54.97-0.02-107.12-24.3-142.53-66.35
	c18.67-35.68,55.57-58.08,95.83-58.18c2.34,0.01,4.67,0.37,6.91,1.07c12.83,4.31,26.25,6.58,39.79,6.71
	c13.53-0.12,26.96-2.39,39.79-6.71c2.24-0.7,4.56-1.06,6.91-1.07C342.86,318.64,379.76,341.04,398.42,376.72z"/>
<path class="st2" d="M341.52,194.01c0,47.29-38.33,85.62-85.62,85.62c-47.28,0-85.61-38.33-85.61-85.62
	c0-23.64,9.58-45.04,25.07-60.53c15.5-15.5,36.9-25.08,60.54-25.08C303.19,108.4,341.52,146.73,341.52,194.01z"/>
</svg>
